<?xml version="1.0" standalone="no"?>
<!DOCTYPE svg PUBLIC "-//W3C//DTD SVG 20010904//EN"
 "http://www.w3.org/TR/2001/REC-SVG-20010904/DTD/svg10.dtd">
<svg version="1.0" xmlns="http://www.w3.org/2000/svg"
 width="500.000000pt" height="500.000000pt" viewBox="0 0 500.000000 500.000000"
 preserveAspectRatio="xMidYMid meet">
<metadata>
Created by potrace 1.16, written by Peter Selinger 2001-2019
</metadata>
<g transform="translate(0.000000,500.000000) scale(0.100000,-0.100000)"
fill="#000000" stroke="none">
<path d="M765 2953 c-47 -12 -48 -16 -40 -208 3 -99 8 -182 11 -186 2 -4 6
-33 10 -65 3 -33 8 -72 9 -89 2 -16 6 -52 8 -80 7 -79 25 -133 49 -146 32 -17
156 -29 189 -17 24 8 29 17 39 76 6 37 12 102 13 144 1 43 4 78 7 78 9 0 14
66 15 173 0 53 3 97 6 97 5 0 6 15 7 133 2 74 1 76 -37 87 -36 10 -248 12
-286 3z m259 -53 c2 -3 0 -41 -5 -85 -6 -57 -4 -84 4 -94 7 -8 8 -12 2 -9 -6
4 -11 -26 -12 -81 -2 -47 -5 -103 -7 -123 -3 -25 0 -38 7 -38 8 0 8 -3 -1 -8
-9 -6 -14 -46 -17 -127 -3 -66 -8 -122 -13 -127 -7 -7 -67 -12 -133 -9 l-35 1
4 110 c3 65 0 115 -6 123 -5 6 -12 64 -16 127 -10 207 -18 295 -27 305 -12 12
-11 28 1 20 6 -3 10 -2 10 4 0 5 10 12 23 14 29 6 218 4 221 -3z"/>
<path d="M2669 2950 c-9 -5 -20 -21 -23 -34 -5 -19 -19 -29 -67 -45 -117 -39
-219 -125 -276 -232 l-28 -54 -5 -268 -5 -267 -75 66 c-41 36 -99 86 -127 111
l-53 45 -60 -55 c-79 -73 -142 -91 -232 -67 -49 14 -94 52 -120 104 -17 31
-22 59 -22 116 0 145 72 220 211 220 72 0 130 -27 182 -86 l39 -45 131 117
c72 64 131 119 131 123 -1 12 -65 78 -111 114 -110 87 -229 120 -418 115 -116
-3 -147 -8 -210 -30 -163 -59 -287 -180 -343 -335 -30 -81 -36 -253 -13 -342
63 -245 273 -404 550 -419 198 -10 366 47 483 164 l62 62 0 -47 c0 -90 36 -98
218 -50 167 45 283 45 444 1 173 -47 210 -42 223 32 4 18 5 161 3 317 l-3 284
-31 66 c-55 115 -175 214 -302 248 -30 8 -42 17 -42 30 0 41 -68 66 -111 41z
m-64 -131 c-68 -82 -120 -238 -132 -402 -3 -48 -11 -91 -17 -95 -6 -5 -38 -15
-71 -22 -33 -7 -66 -15 -74 -18 -11 -4 -13 20 -9 139 4 133 6 148 31 197 50
95 137 175 236 213 63 25 67 24 36 -12z m295 -8 c114 -55 220 -199 220 -298
l0 -42 -50 6 -50 6 0 -71 0 -70 50 -7 c45 -6 50 -9 50 -32 0 -18 -4 -24 -14
-20 -15 6 -69 20 -117 31 -25 5 -27 9 -33 92 -13 160 -57 299 -129 403 -29 43
-29 43 -6 36 13 -4 49 -19 79 -34z m-108 -12 c63 -79 112 -228 124 -384 l7
-80 -212 0 c-182 0 -211 2 -211 15 0 38 22 182 35 236 20 75 64 170 99 211 25
30 31 32 83 29 45 -2 59 -7 75 -27z m171 -518 l82 -16 3 -128 c3 -127 2 -128
-19 -122 -126 40 -164 47 -285 52 -119 5 -140 3 -239 -22 -59 -15 -114 -29
-122 -32 -10 -4 -13 20 -13 121 l0 125 38 10 c159 42 382 47 555 12z m-623
-171 c0 -91 4 -140 11 -140 5 0 63 14 127 32 103 28 132 32 237 32 99 -1 137
-6 220 -29 55 -15 111 -28 125 -29 l25 -1 3 138 c2 104 6 137 15 134 9 -2 13
-47 15 -155 2 -141 1 -151 -17 -157 -10 -3 -80 10 -155 30 -202 52 -285 49
-529 -16 -118 -32 -117 -33 -117 152 0 134 2 145 33 148 4 1 7 -62 7 -139z"/>
<path d="M2611 2619 c-36 -34 -27 -65 39 -132 l60 -62 65 66 c36 37 65 74 65
83 0 9 -11 28 -24 41 -21 21 -33 23 -104 23 -66 0 -84 -3 -101 -19z"/>
<path d="M3210 2400 l0 -510 190 0 190 0 0 115 0 115 73 0 c228 1 397 85 466
230 23 49 26 67 26 170 0 112 -1 117 -34 178 -38 70 -91 121 -165 159 -88 45
-157 53 -463 53 l-283 0 0 -510z m551 171 c25 -31 25 -85 -1 -111 -16 -16 -33
-20 -95 -20 l-75 0 0 81 0 81 76 -4 c65 -3 79 -7 95 -27z"/>
<path d="M915 2100 c-3 -5 -17 -10 -30 -10 -26 0 -75 -19 -75 -29 0 -4 -11
-18 -25 -33 -39 -42 -36 -126 7 -179 39 -49 139 -64 195 -29 45 27 61 56 68
125 4 49 2 66 -14 92 -27 43 -112 86 -126 63z m37 -65 c6 7 62 -55 71 -79 11
-29 -35 -93 -73 -101 -44 -10 -87 3 -110 32 -25 32 -25 70 0 108 21 32 78 58
96 44 6 -5 13 -7 16 -4z"/>
</g>
</svg>
